<svg
   xmlns:dc="http://purl.org/dc/elements/1.1/"
   xmlns:cc="http://creativecommons.org/ns#"
   xmlns:rdf="http://www.w3.org/1999/02/22-rdf-syntax-ns#"
   xmlns:svg="http://www.w3.org/2000/svg"
   xmlns="http://www.w3.org/2000/svg"
   xmlns:sodipodi="http://sodipodi.sourceforge.net/DTD/sodipodi-0.dtd"
   xmlns:inkscape="http://www.inkscape.org/namespaces/inkscape"
   width="1000"
   height="1000"
   viewBox="0 0 744.09448819 1052.3622047"
   id="svg6365"
   version="1.1"
   inkscape:version="0.91 r13725"
   sodipodi:docname="testManySvg.svg">
  <defs
     id="defs6367" />
  <sodipodi:namedview
     id="base"
     pagecolor="#ffffff"
     bordercolor="#666666"
     borderopacity="1.0"
     inkscape:pageopacity="0.0"
     inkscape:pageshadow="2"
     inkscape:zoom="0.35"
     inkscape:cx="-119.28571"
     inkscape:cy="520"
     inkscape:document-units="px"
     inkscape:current-layer="layer1"
     showgrid="false"
     inkscape:window-width="1280"
     inkscape:window-height="707"
     inkscape:window-x="0"
     inkscape:window-y="1"
     inkscape:window-maximized="1" />
  <metadata
     id="metadata6370">
    <rdf:RDF>
      <cc:Work
         rdf:about="">
        <dc:format>image/svg+xml</dc:format>
        <dc:type
           rdf:resource="http://purl.org/dc/dcmitype/StillImage" />
        <dc:title></dc:title>
      </cc:Work>
    </rdf:RDF>
  </metadata>
  <g
     inkscape:label="Layer 1"
     inkscape:groupmode="layer"
     id="layer1">
    <g
       id="g4259"
       transform="matrix(8,0,0,8,-2088.8492,-4215.5028)">
      <path
         inkscape:export-ydpi="90"
         inkscape:export-xdpi="90"
         sodipodi:nodetypes="szsss"
         inkscape:connector-curvature="0"
         id="path7242-5"
         d="m 284.032,580.57249 c 0.68622,1.18857 2.26437,1.56213 3.44803,0.87874 1.18366,-0.68338 1.64922,-2.23688 0.963,-3.42545 -0.68622,-1.18857 -2.22996,-1.582 -3.44804,-0.87874 -1.21807,0.70325 -1.64922,2.23688 -0.96299,3.42545 z"
         style="opacity:1;fill:#ffe0bd;fill-opacity:1;stroke:#000000;stroke-width:0.30000001;stroke-linecap:square;stroke-linejoin:miter;stroke-miterlimit:4;stroke-dasharray:none;stroke-dashoffset:109;stroke-opacity:1" />
      <path
         inkscape:export-ydpi="90"
         inkscape:export-xdpi="90"
         sodipodi:nodetypes="csscssc"
         inkscape:connector-curvature="0"
         id="rect7313-2-8"
         d="m 286.98603,576.72362 c -1.84069,-0.4932 -2.61933,0.89526 -2.86055,1.7955 l -2.66384,9.94159 c -0.24121,0.90024 -0.22383,2.35284 1.61684,2.84606 1.84068,0.4932 2.58204,-0.7561 2.82326,-1.65634 l 2.66384,-9.94159 c 0.24122,-0.90024 0.26112,-2.492 -1.57955,-2.98522 z"
         style="opacity:1;fill:#ffe0bd;fill-opacity:1;stroke:#000000;stroke-width:0.30000001;stroke-linecap:square;stroke-linejoin:miter;stroke-miterlimit:4;stroke-dasharray:none;stroke-dashoffset:109;stroke-opacity:1" />
    </g>
    <path
       style="opacity:1;fill:#185abc;fill-opacity:1;stroke:#000000;stroke-width:2.4000001;stroke-linecap:square;stroke-linejoin:miter;stroke-miterlimit:4;stroke-dasharray:none;stroke-dashoffset:109;stroke-opacity:1"
       d="m 247.90618,350.9765 c -27.67568,-14.67992 -49.22112,30.16024 -63.682,54.07112 -4.34608,7.18608 44.0044,34.07792 48.0196,27.32208 14.27552,-24.0192 46.02632,-65.2872 15.6624,-81.3932 z"
       id="rect7209-6-1-4"
       inkscape:connector-curvature="0"
       sodipodi:nodetypes="ssss"
       inkscape:export-xdpi="90"
       inkscape:export-ydpi="90" />
    <g
       id="g4279"
       transform="matrix(8,0,0,8,-2151.8603,-4257.9292)">
      <ellipse
         inkscape:export-ydpi="90"
         inkscape:export-xdpi="90"
         transform="matrix(-0.96592583,-0.25881905,-0.25881905,0.96592583,0,0)"
         ry="6.2171893"
         rx="3.6921902"
         cy="508.04028"
         cx="-443.42285"
         id="path7087-4"
         style="opacity:1;fill:#ffe0bd;fill-opacity:1;stroke:#000000;stroke-width:0.30000001;stroke-linecap:square;stroke-linejoin:miter;stroke-miterlimit:4;stroke-dasharray:none;stroke-dashoffset:109;stroke-opacity:1" />
      <path
         inkscape:export-ydpi="90"
         inkscape:export-xdpi="90"
         sodipodi:nodetypes="sssss"
         inkscape:connector-curvature="0"
         id="rect7067-9"
         d="m 301.76761,597.55849 c -0.64869,-0.79587 -4.6089,-1.90447 -5.48363,-1.46934 -2.30742,1.1478 -3.2258,6.63273 -3.23573,7.55126 -0.009,0.82083 6.92823,3.68844 7.55493,2.66044 0.52841,-0.8668 3.0383,-6.44335 1.16443,-8.74236 z"
         style="opacity:1;fill:#ffffff;fill-opacity:1;stroke:#000000;stroke-width:0.30000001;stroke-linecap:square;stroke-linejoin:miter;stroke-miterlimit:4;stroke-dasharray:none;stroke-dashoffset:109;stroke-opacity:1" />
    </g>
    <g
       transform="matrix(8,0,0,8,-2248.8349,-4225.6044)"
       id="g4283">
      <path
         inkscape:export-ydpi="90"
         inkscape:export-xdpi="90"
         sodipodi:nodetypes="czsszscc"
         inkscape:connector-curvature="0"
         id="path7009"
         d="m 307.29746,580.24138 c -0.33136,3.67013 -0.25382,8.86459 -0.25308,11.5043 7.6e-4,2.63972 0.59473,3.93759 2.59561,4.40539 3.09591,0.72382 6.34235,0.71634 9.47738,0.289 2.20948,-0.30118 2.96333,-2.33985 3.28633,-4.80871 0.323,-2.46886 0.0347,-8.51593 -0.43073,-11.2564 -0.72034,-4.24125 0.92934,-9.55082 -6.52632,-9.30873 -6.28217,-0.089 -7.05128,3.50417 -8.14919,9.17515 z"
         style="opacity:1;fill:#185abc;fill-opacity:1;stroke:#000000;stroke-width:0.30000001;stroke-linecap:square;stroke-linejoin:miter;stroke-miterlimit:4;stroke-dasharray:none;stroke-dashoffset:109;stroke-opacity:1" />
      <path
         inkscape:export-ydpi="90"
         inkscape:export-xdpi="90"
         sodipodi:nodetypes="cccc"
         inkscape:connector-curvature="0"
         id="path7382"
         d="m 317.05933,571.92431 -2.83404,6.92102 -2.65505,-6.53321 c 1.77003,-0.42759 3.5699,-0.52703 5.48909,-0.38781 z"
         style="fill:#ffe0bd;fill-opacity:1;fill-rule:evenodd;stroke:#000000;stroke-width:0.30000001;stroke-linecap:butt;stroke-linejoin:miter;stroke-miterlimit:4;stroke-dasharray:none;stroke-opacity:1" />
    </g>
    <path
       style="opacity:1;fill:#ffffff;fill-opacity:1;stroke:#000000;stroke-width:2.4000001;stroke-linecap:square;stroke-linejoin:miter;stroke-miterlimit:4;stroke-dasharray:none;stroke-dashoffset:109;stroke-opacity:1"
       d="m 330.83042,503.2769 c -49.19328,5.25768 -70.00664,7.5288 -122.7052,-3.17936 0,0 -4.38744,22.59576 -3.08048,27.1832 2.60032,9.12744 3.84488,10.72112 16.6844,15.07984 13.56064,4.60352 27.02888,8.33016 45.18608,8.22528 13.1756,-0.08 31.0524,-1.77376 46.6696,-6.26464 18.38928,-5.28816 24.66224,-17.1912 25.59736,-22.4996 1.33288,-15.84376 -6.80736,1.80352 -6.60616,-14.1808 z"
       id="rect7015-5"
       inkscape:connector-curvature="0"
       sodipodi:nodetypes="ccssssccc"
       inkscape:export-xdpi="90"
       inkscape:export-ydpi="90" />
    <g
       id="g4275"
       transform="matrix(8,0,0,8,-2184.2633,-4439.719)">
      <ellipse
         transform="scale(-1,1)"
         inkscape:export-ydpi="90"
         inkscape:export-xdpi="90"
         ry="6.2171893"
         rx="3.6921902"
         cy="628.61334"
         cx="-311.88391"
         id="path7087"
         style="opacity:1;fill:#ffe0bd;fill-opacity:1;stroke:#000000;stroke-width:0.30000001;stroke-linecap:square;stroke-linejoin:miter;stroke-miterlimit:4;stroke-dasharray:none;stroke-dashoffset:109;stroke-opacity:1" />
      <path
         inkscape:export-ydpi="90"
         inkscape:export-xdpi="90"
         sodipodi:nodetypes="sssss"
         inkscape:connector-curvature="0"
         id="rect7067"
         d="m 314.64224,618.75376 c -0.83257,-0.60085 -4.94476,-0.64669 -5.67707,0 -1.93172,1.7059 -1.38649,7.39433 -1.15835,8.28413 0.20388,0.79516 7.5813,0.93531 7.92057,-0.21986 0.28607,-0.97403 1.3199,-6.32858 -1.08515,-8.06427 z"
         style="opacity:1;fill:#ffffff;fill-opacity:1;stroke:#000000;stroke-width:0.30000001;stroke-linecap:square;stroke-linejoin:miter;stroke-miterlimit:4;stroke-dasharray:none;stroke-dashoffset:109;stroke-opacity:1" />
    </g>
    <g
       id="g4263"
       transform="matrix(8,0,0,8,-2398.3375,-4213.8588)">
      <path
         inkscape:export-ydpi="90"
         inkscape:export-xdpi="90"
         style="opacity:1;fill:#ffe0bd;fill-opacity:1;stroke:#000000;stroke-width:0.30000001;stroke-linecap:square;stroke-linejoin:miter;stroke-miterlimit:4;stroke-dasharray:none;stroke-dashoffset:109;stroke-opacity:1"
         d="m 338.64414,602.17763 c -1.61311,0 -3.13792,1.55151 -2.91175,3.43789 l 0.58573,4.8854 c 0.22616,1.88638 0.77147,2.40652 2.38459,2.40652 1.61311,0 2.1782,-0.45763 2.36508,-2.34981 l 0.48811,-4.94211 c 0.18688,-1.89218 -1.29864,-3.43789 -2.91176,-3.43789 z"
         id="path4364-7"
         inkscape:connector-curvature="0"
         sodipodi:nodetypes="sssssss" />
      <path
         inkscape:export-ydpi="90"
         inkscape:export-xdpi="90"
         sodipodi:nodetypes="sssssss"
         inkscape:connector-curvature="0"
         id="path4366-8"
         d="m 338.74127,606.06486 c -1.64027,0 -3.24896,-0.0455 -2.97958,1.36647 l 0.70776,3.70969 c 0.26939,1.41197 0.59909,1.82737 2.23936,1.82737 1.64028,0 2.16671,-0.22935 2.36432,-1.65725 l 0.53692,-3.87981 c 0.1976,-1.42791 -1.2285,-1.36647 -2.86878,-1.36647 z"
         style="opacity:1;fill:#ffffff;fill-opacity:1;stroke:#000000;stroke-width:0.30000001;stroke-linecap:square;stroke-linejoin:miter;stroke-miterlimit:4;stroke-dasharray:none;stroke-dashoffset:109;stroke-opacity:1" />
      <path
         inkscape:export-ydpi="90"
         inkscape:export-xdpi="90"
         style="opacity:1;fill:#371c1c;fill-opacity:1;stroke:#000000;stroke-width:0.30000001;stroke-linecap:square;stroke-linejoin:miter;stroke-miterlimit:4;stroke-dasharray:none;stroke-dashoffset:109;stroke-opacity:1"
         d="m 331.68694,616.26509 c 1.58068,0.45924 3.32754,0.0491 4.93897,0.0655 1.31972,0.0134 3.30913,0.0955 4.62784,0.0345 0.50123,-0.0232 0.43291,-0.49624 0.45188,-1.27826 0.0242,-0.99955 -0.35749,-2.60854 -0.21537,-3.58688 -0.79976,-0.0843 -1.09261,1.15582 -1.62546,1.18468 -0.4421,-0.007 -3.22579,-1.8036 -3.63674,-1.55419 -1.48805,0.90312 -2.05271,1.31194 -3.24849,2.05535 -0.74189,0.46122 -1.63855,0.49092 -1.97784,1.38644 -0.22104,0.67875 0.0499,1.42773 0.68521,1.69286 z"
         id="path4370-5"
         inkscape:connector-curvature="0"
         sodipodi:nodetypes="csssccsscc" />
      <path
         inkscape:export-ydpi="90"
         inkscape:export-xdpi="90"
         style="opacity:1;fill:#185abc;fill-opacity:1;stroke:#000000;stroke-width:0.30000001;stroke-linecap:square;stroke-linejoin:miter;stroke-miterlimit:4;stroke-dasharray:none;stroke-dashoffset:109;stroke-opacity:1"
         d="m 340.24336,606.04345 -2.89597,0 c -0.84893,0 -1.78864,0.0189 -1.74363,0.4004 l 0.11365,0.96321 c 0.045,0.3815 0.78105,0.16471 1.62998,0.16471 l 2.89597,0 c 0.84893,0 1.43622,0.0665 1.43622,-0.31859 l 0,-0.94135 c 0,-0.38512 -0.58729,-0.26838 -1.43622,-0.26838 z"
         id="path4368-9"
         inkscape:connector-curvature="0"
         sodipodi:nodetypes="sssssssss" />
    </g>
    <g
       id="g4269"
       transform="matrix(8,0,0,8,-2248.8349,-4221.1064)">
      <path
         inkscape:export-ydpi="90"
         inkscape:export-xdpi="90"
         style="opacity:1;fill:#ffe0bd;fill-opacity:1;stroke:#000000;stroke-width:0.30000001;stroke-linecap:square;stroke-linejoin:miter;stroke-miterlimit:4;stroke-dasharray:none;stroke-dashoffset:109;stroke-opacity:1"
         d="m 307.88815,603.14287 c -1.61311,0 -3.13792,1.55152 -2.91175,3.43789 l 0.58573,4.88541 c 0.22617,1.88638 0.77148,2.40651 2.38459,2.40651 1.61311,0 2.1782,-0.45763 2.36508,-2.34981 l 0.48811,-4.94211 c 0.18688,-1.89217 -1.29864,-3.43789 -2.91176,-3.43789 z"
         id="path4364-7-2"
         inkscape:connector-curvature="0"
         sodipodi:nodetypes="sssssss" />
      <path
         inkscape:export-ydpi="90"
         inkscape:export-xdpi="90"
         sodipodi:nodetypes="sssssss"
         inkscape:connector-curvature="0"
         id="path4366-8-7"
         d="m 307.86969,606.88226 c -1.64027,0 -3.24896,-0.0455 -2.97958,1.36646 l 0.70776,3.7097 c 0.26939,1.41197 0.59909,1.82737 2.23936,1.82737 1.64028,0 2.16671,-0.22936 2.36432,-1.65726 l 0.53692,-3.87981 c 0.1976,-1.4279 -1.2285,-1.36646 -2.86878,-1.36646 z"
         style="opacity:1;fill:#ffffff;fill-opacity:1;stroke:#000000;stroke-width:0.30000001;stroke-linecap:square;stroke-linejoin:miter;stroke-miterlimit:4;stroke-dasharray:none;stroke-dashoffset:109;stroke-opacity:1" />
      <path
         inkscape:export-ydpi="90"
         inkscape:export-xdpi="90"
         style="opacity:1;fill:#371c1c;fill-opacity:1;stroke:#000000;stroke-width:0.30000001;stroke-linecap:square;stroke-linejoin:miter;stroke-miterlimit:4;stroke-dasharray:none;stroke-dashoffset:109;stroke-opacity:1"
         d="m 300.77064,617.07002 c 1.58068,0.45924 3.32754,0.0491 4.93897,0.0655 1.31971,0.0134 3.30912,0.0955 4.62783,0.0345 0.50123,-0.0232 0.43291,-0.49624 0.45188,-1.27826 0.0242,-0.99956 -0.35749,-2.60854 -0.21537,-3.58688 -0.79975,-0.0843 -1.09261,1.15582 -1.62545,1.18468 -0.44211,-0.007 -3.22579,-1.80361 -3.63675,-1.5542 -1.48805,0.90313 -2.0527,1.31195 -3.24849,2.05536 -0.74189,0.46122 -1.63855,0.49092 -1.97784,1.38644 -0.22104,0.67875 0.0499,1.42773 0.68522,1.69286 z"
         id="path4370-5-7"
         inkscape:connector-curvature="0"
         sodipodi:nodetypes="csssccsscc" />
      <path
         inkscape:export-ydpi="90"
         inkscape:export-xdpi="90"
         style="opacity:1;fill:#185abc;fill-opacity:1;stroke:#000000;stroke-width:0.30000001;stroke-linecap:square;stroke-linejoin:miter;stroke-miterlimit:4;stroke-dasharray:none;stroke-dashoffset:109;stroke-opacity:1"
         d="m 309.24689,606.2071 -2.89597,0 c -0.84893,0 -1.78864,0.0189 -1.74363,0.40041 l 0.11365,0.9632 c 0.045,0.38151 0.78105,0.16472 1.62998,0.16472 l 2.89597,0 c 0.84893,0 1.43622,0.0665 1.43622,-0.31859 l 0,-0.94135 c 0,-0.38512 -0.58729,-0.26839 -1.43622,-0.26839 z"
         id="path4368-9-8"
         inkscape:connector-curvature="0"
         sodipodi:nodetypes="sssssssss" />
    </g>
    <g
       id="g4240"
       transform="matrix(8,0,0,8,-2189.5819,-4134.165)">
      <path
         inkscape:export-ydpi="90"
         inkscape:export-xdpi="90"
         sodipodi:nodetypes="saaaaass"
         inkscape:connector-curvature="0"
         id="path4829"
         d="m 301.79271,558.88881 c 0.50176,1.3821 4.2958,1.76303 6.51367,1.52867 1.32687,-0.14021 2.85255,-0.61715 3.61968,-1.70883 1.43185,-2.03758 1.57996,-5.10315 0.71143,-7.43716 -0.42388,-1.13907 -1.49105,-2.11043 -2.63546,-2.51966 -1.9729,-0.7055 -4.46271,-0.58637 -6.26757,0.47784 -1.26638,0.74671 -2.44662,2.21592 -2.42203,3.68585 0.0369,2.20909 -0.2962,3.83444 0.48028,5.97329 z"
         style="opacity:1;fill:#ffe0bd;fill-opacity:1;stroke:#000000;stroke-width:0.30000001;stroke-linecap:square;stroke-linejoin:miter;stroke-miterlimit:4;stroke-dasharray:none;stroke-dashoffset:109;stroke-opacity:1" />
      <circle
         transform="scale(-1,1)"
         inkscape:export-ydpi="90"
         inkscape:export-xdpi="90"
         style="opacity:1;fill:#ffffff;fill-opacity:1;stroke:#ffffff;stroke-width:0.30000001;stroke-linecap:square;stroke-linejoin:miter;stroke-miterlimit:4;stroke-dasharray:none;stroke-dashoffset:109;stroke-opacity:1"
         id="circle4337"
         cx="-308.89633"
         cy="552.19434"
         r="1.2529433" />
      <circle
         transform="scale(-1,1)"
         inkscape:export-ydpi="90"
         inkscape:export-xdpi="90"
         r="1.2529433"
         cy="552.42578"
         cx="-303.57599"
         id="path4333"
         style="opacity:1;fill:#ffffff;fill-opacity:1;stroke:#ffffff;stroke-width:0.30000001;stroke-linecap:square;stroke-linejoin:miter;stroke-miterlimit:4;stroke-dasharray:none;stroke-dashoffset:109;stroke-opacity:1" />
      <ellipse
         transform="scale(-1,1)"
         inkscape:export-ydpi="90"
         inkscape:export-xdpi="90"
         ry="0.53575087"
         rx="0.3567591"
         cy="552.46161"
         cx="-303.21802"
         id="path4335"
         style="opacity:1;fill:#000000;fill-opacity:1;stroke:#000000;stroke-width:0.30000001;stroke-linecap:square;stroke-linejoin:miter;stroke-miterlimit:4;stroke-dasharray:none;stroke-dashoffset:109;stroke-opacity:1" />
      <ellipse
         transform="scale(-1,1)"
         inkscape:export-ydpi="90"
         inkscape:export-xdpi="90"
         style="opacity:1;fill:#000000;fill-opacity:1;stroke:#000000;stroke-width:0.30000001;stroke-linecap:square;stroke-linejoin:miter;stroke-miterlimit:4;stroke-dasharray:none;stroke-dashoffset:109;stroke-opacity:1"
         id="ellipse4339"
         cx="-308.53836"
         cy="552.23016"
         rx="0.3567591"
         ry="0.53575087" />
      <path
         inkscape:export-ydpi="90"
         inkscape:export-xdpi="90"
         sodipodi:nodetypes="cscsc"
         inkscape:connector-curvature="0"
         id="path4341"
         d="m 304.97643,558.70735 c 0,0.0989 0.87334,0.40307 1.81246,0.40307 0.93912,0 1.66308,-0.26687 1.66308,-0.36572 0,-0.0989 -0.74506,0.19759 -1.68418,0.19759 -0.93911,0 -1.79136,-0.33379 -1.79136,-0.23494 z"
         style="opacity:1;fill:#000000;fill-opacity:1;stroke:#000000;stroke-width:0.30000001;stroke-linecap:square;stroke-linejoin:miter;stroke-miterlimit:4;stroke-dasharray:none;stroke-dashoffset:109;stroke-opacity:1" />
      <path
         inkscape:export-ydpi="90"
         inkscape:export-xdpi="90"
         sodipodi:nodetypes="sssss"
         inkscape:connector-curvature="0"
         id="path4343"
         d="m 305.36741,554.89671 c 0,0.52425 0.78511,0.94924 0.92491,0.94925 0.1398,0 -0.7468,-0.46974 -0.7468,-0.994 0,-0.52426 0.92395,-1.09123 0.78415,-1.09123 -0.13981,0 -0.96226,0.61172 -0.96226,1.13598 z"
         style="opacity:1;fill:#000000;fill-opacity:1;stroke:#000000;stroke-width:0.30000001;stroke-linecap:square;stroke-linejoin:miter;stroke-miterlimit:0;stroke-dasharray:none;stroke-dashoffset:109;stroke-opacity:1" />
      <path
         inkscape:export-ydpi="90"
         inkscape:export-xdpi="90"
         sodipodi:nodetypes="ccccc"
         inkscape:connector-curvature="0"
         id="rect5013"
         d="m 311.55812,549.08705 -4.00336,1.41915 0.0694,0.28794 4.11411,-0.96546 z"
         style="opacity:1;fill:#f4e83c;fill-opacity:1;stroke:#000000;stroke-width:0.30000001;stroke-linecap:square;stroke-linejoin:miter;stroke-miterlimit:4;stroke-dasharray:none;stroke-dashoffset:109;stroke-opacity:1" />
      <path
         inkscape:export-ydpi="90"
         inkscape:export-xdpi="90"
         sodipodi:nodetypes="ccccc"
         inkscape:connector-curvature="0"
         id="rect5013-2"
         d="m 302.50951,550.53665 2.64585,0.66005 0.0453,-0.19405 -2.57519,-0.96632 z"
         style="opacity:1;fill:#f4e83c;fill-opacity:1;stroke:#000000;stroke-width:0.30000001;stroke-linecap:square;stroke-linejoin:miter;stroke-miterlimit:4;stroke-dasharray:none;stroke-dashoffset:109;stroke-opacity:1" />
      <path
         inkscape:export-ydpi="90"
         inkscape:export-xdpi="90"
         sodipodi:nodetypes="cccccccsccc"
         inkscape:connector-curvature="0"
         id="path4863"
         d="m 312.80355,549.43575 c -1.10575,0.96431 -2.0572,2.43007 -1.69719,3.70297 -1.05158,-1.89554 -1.32235,-2.93152 -2.23722,-4.62872 -1.73576,0.70717 -2.58436,1.68434 -2.77722,3.39439 -0.69705,-1.58809 -0.88604,-1.75675 -1.58148,-2.93151 -1.92863,1.0286 -2.62294,3.25295 -3.62583,6.55734 -0.4243,-3.12438 0.74385,-6.38708 -0.93623,-8.64414 4.85466,-1.20246 15.90618,-2.22026 16.18953,1.85697 0.18444,2.65397 -2.00266,5.81936 -2.48576,8.94724 -1.13146,-2.32722 -1.13423,-4.72742 -1.4171,-7.47894 z"
         style="fill:#f4e83c;fill-opacity:1;fill-rule:evenodd;stroke:#000000;stroke-width:0.30000001;stroke-linecap:butt;stroke-linejoin:miter;stroke-miterlimit:4;stroke-dasharray:none;stroke-opacity:1" />
    </g>
    <g
       id="g4252"
       transform="matrix(8,0,0,8,-2365.6313,-4179.1374)">
      <path
         inkscape:export-ydpi="90"
         inkscape:export-xdpi="90"
         sodipodi:nodetypes="szsss"
         inkscape:connector-curvature="0"
         id="path7242"
         d="m 336.99529,576.90117 c 0.68623,1.18857 2.26438,1.56213 3.44804,0.87874 1.18366,-0.68339 1.64922,-2.23688 0.963,-3.42546 -0.68622,-1.18857 -2.22996,-1.58199 -3.44804,-0.87874 -1.21807,0.70326 -1.64922,2.23689 -0.963,3.42546 z"
         style="opacity:1;fill:#ffe0bd;fill-opacity:1;stroke:#000000;stroke-width:0.30000001;stroke-linecap:square;stroke-linejoin:miter;stroke-miterlimit:4;stroke-dasharray:none;stroke-dashoffset:109;stroke-opacity:1" />
      <path
         inkscape:export-ydpi="90"
         inkscape:export-xdpi="90"
         sodipodi:nodetypes="csscssc"
         inkscape:connector-curvature="0"
         id="rect7313-2"
         d="m 339.98447,572.62936 c -2.09618,10e-6 -2.5282,1.69695 -2.5282,2.72215 l 0,11.32152 c 0,1.02519 0.43203,2.56366 2.52819,2.56368 2.09618,-2e-5 2.52821,-1.53849 2.52821,-2.56368 l -1e-5,-11.32152 c 1e-5,-1.0252 -0.43202,-2.72214 -2.52819,-2.72215 z"
         style="opacity:1;fill:#ffe0bd;fill-opacity:1;stroke:#000000;stroke-width:0.30000001;stroke-linecap:square;stroke-linejoin:miter;stroke-miterlimit:4;stroke-dasharray:none;stroke-dashoffset:109;stroke-opacity:1" />
    </g>
    <g
       id="g4256"
       transform="matrix(8,0,0,8,-2381.5193,-4072.4584)">
      <path
         inkscape:export-ydpi="90"
         inkscape:export-xdpi="90"
         sodipodi:nodetypes="ssss"
         inkscape:connector-curvature="0"
         id="rect7209-6-1"
         d="m 335.42191,552.2585 c -3.65077,2.28632 0.20748,7.93468 2.06056,11.30054 0.55692,1.01157 7.08325,-2.89712 6.55483,-3.83971 -1.87874,-3.35123 -4.60999,-9.96925 -8.61539,-7.46083 z"
         style="opacity:1;fill:#185abc;fill-opacity:1;stroke:#000000;stroke-width:0.30000001;stroke-linecap:square;stroke-linejoin:miter;stroke-miterlimit:4;stroke-dasharray:none;stroke-dashoffset:109;stroke-opacity:1" />
    </g>
  </g>
</svg>
